{"title":"Stricken.2009.DVDRip.XviD-EXViD","uid":6573080,"size":1524835336,"categoryP":"video","categoryS":"movies","magnet":"?xt=urn:btih:0b4a96a279f9a5d85ec20390de87969b997f3ca1&amp;dn=Stricken.2009.DVDRip.XviD-EXViD&amp;tr=udp%3A%2F%2Ftracker.openbittorrent.com%3A80&amp;tr=udp%3A%2F%2Fopen.demonii.com%3A1337&amp;tr=udp%3A%2F%2Ftracker.coppersurfer.tk%3A6969&amp;tr=udp%3A%2F%2Fexodus.desync.com%3A6969","seeders":0,"leechers":1,"uploader":"sceneline","files":111,"time":1312057829,"description":"- &lt;a href=&quot;\nhttp://www.Speed.Cd&quot; rel=&quot;nofollow&quot; target=&quot;_NEW&quot;&gt;\nhttp://www.Speed.Cd&lt;/a&gt; \n       &lt;a href=&quot;\nhttp://www.Speed.Cd&quot; rel=&quot;nofollow&quot; target=&quot;_NEW&quot;&gt;\nhttp://www.Speed.Cd&lt;/a&gt;       the fast  and The Hottest Private Tracker on the net\n\n(((--Registration will be open on june every weekend--)))\n\nPlease Seed back to make the speed Faster!!!\n\n------------------nfo--------------------------\n-                                                                                                     \n       \n     \n     \n       \n       \n     \n     \n                                         \n                                         \n                EXVID                    \n                                         \n         \n                                         \n         Filled the Archives             \n                                         \n         \n                                         \n                With:                    \n                                         \n         \n                                         \n                                    \n     E240                           \n                                    \n     SP               (C) 2009      \n                                         \n     \n     \n     \n                                                                                  \n                                                                                   \n                    Stricken.2009.DVDRip.XviD-EXViD                                 \n                                                                                   \n                                                                                  \n     \n                                                                                               \nEXViD aims to iNTERNAL those releases which have been lost in the archives.\nEXViD aims to PRE non-internal releases which have poor sources and are likely skipped by others. &lt;a href=&quot;\nhttp://www.imdb.com/title/tt1365474/&quot; rel=&quot;nofollow&quot; target=&quot;_NEW&quot;&gt;\nhttp://www.imdb.com/title/tt1365474/&lt;/a&gt;\nSubtitles: EN, NL\nDate: 2011.07\n\nDirector: Reinout Oerlemans\n\nGenres: Drama | Romance\n\nPlot:\nStijn and Carmen have everything: They are young, successful and wealthy. They live a perfect\nlife in Amsterdam and move to Amstelveen when they have a child, Luna. Then the world collapses\nas Carmen is diagnosed with breast cancer. Going in and out of the hospital, first chemotherapy\nand later radiation therapy, throw up, the whole cancer package is there. Stijn has trouble\ndealing with it and starts living a second life. By day he's all but support to Carmen, by night\nhe goes out, drinks and has lots of sex with lots of woman. Carmen has always known that Stijn\nis not the faithful type, but after her breast is amputated she gets less confident and finds\nherself troubling over his unfaithfulness. For Stijn it has always been just sex, until he meets\nRoos. During the cancer period he sees her more and more. Then a miracle, Carmen is better. She\nasks of Stijn to quit cheating and to work things out between them...\n\nCast:\nCarice van Houten \t ... \t Carmen \nAnna Drijver \t ... \t Roos \nBarry Atsma \t ... \t Stijn \nPierre Bokma \t ... \t Huisarts \nEline Van der Velden \t ... \t Champagne Girl (voice) \nJeroen Willems \t ... \t Frenk \nWendell Jaspers \t ... \t Anne \nBeppie Melissen \t ... \t Moeder Carmen \nYfke Wegman \t ... \t Luna \nSacha Bulthuis \t ... \t Dokter Scheltema \nWalid Benmbarek \t ... \t Ramon \nSamuel Hubner \t\t\nDavid Lucieer \t ... \t Doktersassistent \nSteef Cuijpers \t ... \t Taxichauffeur \nMark Scholten \t ... \t Thomas\n\nStats:\nFormat                           : AVI\nFormat/Info                      : Audio Video Interleave\nFile size                        : 1.36 GiB\nDuration                         : 1h 48mn\nOverall bit rate                 : 1 795 Kbps\nWriting application              : Nandub v1.0rc2\nWriting library                  : Nandub build 1852/release\n\nVideo\nID                               : 0\nFormat                           : MPEG-4 Visual\nFormat profile                   : Advanced Simple@L5\nFormat settings, BVOP            : 2\nFormat settings, QPel            : No\nFormat settings, GMC             : No warppoints\nFormat settings, Matrix          : Default (H.263)\nCodec ID                         : XVID\nCodec ID/Hint                    : XviD\nDuration                         : 1h 48mn\nBit rate                         : 1 340 Kbps\nWidth                            : 640 pixels\nHeight                           : 272 pixels\nDisplay aspect ratio             : 2.35:1\nFrame rate                       : 25.000 fps\nColor space                      : YUV\nChroma subsampling               : 4:2:0\nBit depth                        : 8 bits\nScan type                        : Progressive\nCompression mode                 : Lossy\nBits/(Pixel*Frame)               : 0.308\nStream size                      : 1.02 GiB (75%)\nWriting library                  : XviD 64\n\nAudio\nID                               : 1\nFormat                           : AC-3\nFormat/Info                      : Audio Coding 3\nMode extension                   : CM (complete main)\nCodec ID                         : 2000\nDuration                         : 1h 48mn\nBit rate mode                    : Constant\nBit rate                         : 448 Kbps\nChannel(s)                       : 6 channels\nChannel positions                : Front: L C R, Side: L R, LFE\nSampling rate                    : 48.0 KHz\nBit depth                        : 16 bits\nCompression mode                 : Lossy\nStream size                      : 348 MiB (25%)\nAlignment                        : Aligned on interleaves\nInterleave, duration             : 96 ms (2.40 video frames)\nInterleave, preload duration     : 96 ms\n\n\n\n\nRelease notes:\nenjoy!\n\nLooking for:\n75TB+ Archives\nDUTCH/FLEMiSH Archives\n                                                                                                    \nGreets: CRBS EPiSODE FiCO FLS iLS KLASSiGER LiPSYNC MADE NODLABS RUNNER SPRiNTER      \n   \n\n                                                                    ASCII DONE BY XX^NFO 2oo9","torrent":{"xt":"urn:btih:0b4a96a279f9a5d85ec20390de87969b997f3ca1","amp;dn":"Stricken.2009.DVDRip.XviD-EXViD","amp;tr":["udp%3A%2F%2Ftracker.openbittorrent.com%3A80","udp%3A%2F%2Fopen.demonii.com%3A1337","udp%3A%2F%2Ftracker.coppersurfer.tk%3A6969","udp%3A%2F%2Fexodus.desync.com%3A6969"],"infoHash":"0b4a96a279f9a5d85ec20390de87969b997f3ca1","infoHashBuffer":{"type":"Buffer","data":[11,74,150,162,121,249,165,216,94,194,3,144,222,135,150,155,153,127,60,161]},"announce":[],"urlList":[]}}